<?xml version="1.0" encoding="UTF-8"?>
<svg id="Layer_6" xmlns="http://www.w3.org/2000/svg" viewBox="0 0 472.78 734.3">
  <defs>
    <style>
      .cls-1 {
        font-family: ArialMT, Arial;
        letter-spacing: -.02em;
      }

      .cls-1, .cls-2, .cls-3 {
        fill: #fff;
      }

      .cls-1, .cls-3 {
        font-size: 262.52px;
      }

      .cls-4, .cls-5, .cls-6, .cls-7, .cls-8, .cls-9 {
        fill: none;
        stroke: #fff;
        stroke-miterlimit: 10;
      }

      .cls-5 {
        stroke-width: 5px;
      }

      .cls-6 {
        stroke-width: 4px;
      }

      .cls-3 {
        font-family: Arial-BoldMT, Arial;
        font-weight: 700;
      }

      .cls-7 {
        stroke-width: 3px;
      }

      .cls-8 {
        stroke-width: 1.5px;
      }

      .cls-9 {
        stroke-width: 2px;
      }
    </style>
  </defs>
  <path class="cls-6" d="M112.8,538.96c-10.2-3.03-13.85-31.96-10.46-31.96,44.06,0,236.34-.46,265.57.46,7.33.23-3.08,30.13-11.39,32.41-2.12.58-240.65,0-243.72-.91Z"/>
  <text class="cls-1" transform="translate(128.39 397.13) scale(.97 1)"><tspan x="0" y="0">T</tspan></text>
  <polyline class="cls-4" points="397.95 437.53 364.56 470.51 364.56 506.9"/>
  <polyline class="cls-9" points="453.15 275.43 385.09 407.22 422.42 381.32 432.55 364.48"/>
  <polyline class="cls-9" points="347.34 506.92 347.34 464.82 385.09 407.22"/>
  <polyline class="cls-9" points="126.37 506.89 126.37 428.3 64.76 355.33 54.1 305.45 16.5 280.56"/>
  <polyline class="cls-4" points="110.88 506.89 118.14 467.3 77.8 415.77"/>
  <circle class="cls-9" cx="9.34" cy="277.12" r="8.34"/>
  <circle class="cls-9" cx="90.13" cy="349.62" r="8.34"/>
  <circle class="cls-9" cx="22.15" cy="313.87" r="8.34"/>
  <circle class="cls-4" cx="72.11" cy="410.74" r="6.92"/>
  <circle class="cls-4" cx="108.74" cy="270.86" r="6.26"/>
  <circle class="cls-8" cx="139.99" cy="274.57" r="6.26"/>
  <circle class="cls-4" cx="138.61" cy="31.55" r="6.26"/>
  <circle class="cls-8" cx="43.33" cy="131.82" r="6.26"/>
  <circle class="cls-8" cx="148.76" cy="98.23" r="6.26"/>
  <circle class="cls-4" cx="402.57" cy="432.65" r="6.92"/>
  <circle class="cls-9" cx="436.6" cy="357.96" r="7.89"/>
  <circle class="cls-9" cx="416.8" cy="284.33" r="7.89"/>
  <circle class="cls-9" cx="428.99" cy="114.5" r="7.89"/>
  <circle class="cls-7" cx="457.1" cy="268.6" r="7.89"/>
  <circle class="cls-7" cx="463.39" cy="202.38" r="7.89"/>
  <circle class="cls-7" cx="434.5" cy="154.67" r="7.89"/>
  <circle class="cls-7" cx="361.92" cy="46.66" r="7.89"/>
  <circle class="cls-7" cx="377.59" cy="197.61" r="7.89"/>
  <circle class="cls-7" cx="134.24" cy="145.07" r="7.89"/>
  <circle class="cls-9" cx="242.56" cy="57.96" r="7.89"/>
  <circle class="cls-7" cx="282.22" cy="11.63" r="7.89"/>
  <circle class="cls-9" cx="235.98" cy="8.89" r="7.89"/>
  <circle class="cls-9" cx="329" cy="27.66" r="7.89"/>
  <circle class="cls-4" cx="345.02" cy="334.95" r="6.43"/>
  <circle class="cls-4" cx="356.83" cy="297.32" r="5.09"/>
  <circle class="cls-4" cx="395.65" cy="171.84" r="5.09"/>
  <circle class="cls-4" cx="331.77" cy="106.13" r="5.09"/>
  <path class="cls-5" d="M236.07,605.45h90.56c3.53,0,6.4,2.86,6.4,6.4v23.54c0,1.46-.5,2.87-1.41,4.01l-72.46,90.02c-1.21,1.51-3.05,2.39-4.98,2.39h-18.23s-18.23,0-18.23,0c-1.94,0-3.77-.88-4.98-2.39l-72.46-90.02c-.91-1.14-1.41-2.55-1.41-4.01v-23.54c0-3.53,2.86-6.4,6.4-6.4h90.56s.26,0,.26,0Z"/>
  <rect class="cls-7" x="119.2" y="547.81" width="233.49" height="13.7" rx="3.91" ry="3.91"/>
  <rect class="cls-9" x="128.39" y="569.21" width="214.71" height="13.7" rx="3.91" ry="3.91"/>
  <rect class="cls-4" x="138.85" y="589.15" width="194.18" height="10.44" rx="3.91" ry="3.91"/>
  <text class="cls-3" transform="translate(224.71 437.55) scale(.59 1)"><tspan x="0" y="0">D</tspan></text>
  <polygon class="cls-2" points="165.45 506.89 166.12 239.12 168.45 506.89 165.45 506.89 165.45 506.89"/>
  <polyline class="cls-7" points="145.03 506.92 145.03 376.35 101.62 338 94.81 267.23 27.05 174.64"/>
  <polyline class="cls-7" points="13.81 224.86 52.12 281.65 97.32 312.7"/>
  <polyline class="cls-7" points="333.41 506.89 333.41 437.55 386.78 351.12 380.89 280.56 457.89 208.77"/>
  <line class="cls-7" x1="380.78" y1="204.14" x2="405.22" y2="256.92"/>
  <polygon class="cls-2" points="268.44 506.89 269.94 444.57 271.44 506.89 268.44 506.89 268.44 506.89"/>
  <polygon class="cls-2" points="246.89 506.89 248.39 444.57 249.89 506.89 246.89 506.89 246.89 506.89"/>
  <polygon class="cls-2" points="225.34 506.89 226.84 425.74 228.34 506.89 225.34 506.89 225.34 506.89"/>
  <polygon class="cls-2" points="207.68 506.89 209.18 410.74 210.68 506.89 207.68 506.89 207.68 506.89"/>
  <polygon class="cls-2" points="185.71 506.89 187.21 410.74 188.71 506.89 185.71 506.89 185.71 506.89"/>
  <polygon class="cls-2" points="289.26 506.89 290.76 444.57 292.26 506.89 289.26 506.89 289.26 506.89"/>
  <polygon class="cls-2" points="310.59 506.89 312.09 444.57 313.59 506.89 310.59 506.89 310.59 506.89"/>
  <polygon class="cls-2" points="252.4 101.52 252.53 196.45 249.4 101.57 252.4 101.52 252.4 101.52"/>
  <polygon class="cls-2" points="273.95 101.54 272.45 196.45 270.95 101.54 273.95 101.54 273.95 101.54"/>
  <polygon class="cls-2" points="291.61 101.54 290.11 235.43 288.61 101.54 291.61 101.54 291.61 101.54"/>
  <polyline class="cls-9" points="128.39 361.65 128.39 315.73 138.61 280.83"/>
  <line class="cls-9" x1="347.34" y1="340.42" x2="364.56" y2="386.77"/>
  <line class="cls-9" x1="413.5" y1="292.22" x2="385.49" y2="332.96"/>
  <circle class="cls-7" cx="23.58" cy="166.75" r="7.89"/>
  <circle class="cls-7" cx="107.98" cy="65.85" r="7.89"/>
  <circle class="cls-7" cx="208.46" cy="33.55" r="7.89"/>
  <circle class="cls-7" cx="162.76" cy="13.93" r="7.89"/>
  <circle class="cls-7" cx="62.69" cy="96.81" r="7.89"/>
  <circle class="cls-7" cx="10.04" cy="217.62" r="7.89"/>
  <line class="cls-9" x1="29.57" y1="318.36" x2="60.53" y2="333.57"/>
  <polyline class="cls-7" points="45.05 137.2 53.72 168.71 77.17 168.71"/>
  <polyline class="cls-7" points="144.58 102.46 104.94 134.37 82.88 197.61"/>
  <line class="cls-7" x1="109.42" y1="73.74" x2="111.65" y2="128.97"/>
  <line class="cls-7" x1="434.77" y1="162.55" x2="437.36" y2="226.71"/>
  <line class="cls-4" x1="113.29" y1="275.76" x2="133.6" y2="302.1"/>
  <line class="cls-9" x1="92.53" y1="357.96" x2="104.42" y2="402.3"/>
  <path class="cls-2" d="M164.26,23.74c.69,20.03,1.93,55.88,2.61,75.54.21,2.77-.76,91.37-.75,97.17-.33-16.43-.29-93.2-1.5-107.91-.71-13.75-2.62-50.47-3.36-64.67,0,0,3-.13,3-.13h0Z"/>
  <path class="cls-2" d="M205.55,42.38s-26.39,32.01-26.39,32.01l.18-.95,8.62,27.88c.12.31-.79,94.84-.75,95.15.03.06-.86-95.72-.75-94.67,0,0-9.07-27.73-9.07-27.73l-.17-.51.35-.44,25.65-32.6s2.34,1.88,2.34,1.88h0Z"/>
  <polyline class="cls-4" points="110.54 95.2 138.61 81.04 138.61 38.13"/>
  <polyline class="cls-7" points="88 184.69 128.39 179.2 134.24 152.95"/>
  <polygon class="cls-2" points="237.48 16.79 237.06 41.45 237.05 42.13 236.5 42.51 209.14 61.36 209.58 60.5 208.53 196.45 207.48 60.5 207.48 59.96 207.93 59.64 235 40.36 234.44 41.42 234.48 16.76 237.48 16.79 237.48 16.79"/>
  <path class="cls-2" d="M229.35,196.45c.05-.32-1.18-94.95-1.04-95.22,0,0,10.24-35,10.24-35l2.87.88-11.04,34.76c.14-1.62-1.08,94.95-1.04,94.59h0Z"/>
  <polyline class="cls-7" points="250.8 102.46 254.15 73.74 272.45 49.43 281.09 20.78"/>
  <polyline class="cls-7" points="272.45 101.54 270.81 65.52 266.93 60.19"/>
  <polygon class="cls-2" points="123.23 225.04 88.31 226.54 87.08 226.59 86.83 225.33 63.32 106.42 66.26 105.84 89.78 224.74 88.31 223.54 123.23 225.04 123.23 225.04"/>
  <polygon class="cls-2" points="333.41 262.41 361.58 259.2 360.22 261.09 336.93 175.03 336.75 174.35 337.16 173.77 352.57 152.08 352.3 152.8 357.09 106.46 357.16 105.78 357.72 105.38 389.57 83.13 391.29 85.58 359.44 107.84 360.08 106.77 355.28 153.11 355.24 153.5 355.01 153.82 339.6 175.51 339.83 174.25 363.11 260.3 363.62 262.18 361.76 262.19 333.41 262.41 333.41 262.41"/>
  <line class="cls-4" x1="361.92" y1="300.08" x2="383.23" y2="308.57"/>
  <path class="cls-4" d="M380.98,142.91c1.3,1.29,1.41,3.51.25,4.95s-3.15,1.57-4.45.28-1.41-3.51-.25-4.95c1.16-1.45,3.15-1.57,4.45-.28Z"/>
  <line class="cls-4" x1="382.03" y1="147.43" x2="395.2" y2="153.28"/>
  <circle class="cls-4" cx="408.46" cy="193.37" r="5.09"/>
  <line class="cls-4" x1="413.56" y1="196.13" x2="434.87" y2="204.63"/>
  <line class="cls-9" x1="421.1" y1="118.94" x2="356.83" y2="127.96"/>
  <circle class="cls-7" cx="402.14" cy="76.1" r="13.17"/>
  <polyline class="cls-7" points="290.11 101.54 288.59 79.34 323.74 33.55"/>
  <path class="cls-2" d="M361.27,55.51l-8.18,31.91-.35,1.36-1.32-.43-41.47-13.61s1.36-1.06,1.36-1.06l1.3,21.97c.27,3.24.4,7.79.32,10.99-.2,34.4-.64,107.85-.85,142.96-.21-35.49-.64-108.24-.85-142.9.06-3.19-.16-7.75-.45-10.97,0,0-1.56-21.91-1.56-21.91l-.11-1.53,1.47.46,41.63,13.11-1.66.93,7.8-32.01s2.91.73,2.91.73h0Z"/>
  <line class="cls-9" x1="395.65" y1="166.75" x2="393" y2="123.45"/>
  <line class="cls-4" x1="330.22" y1="110.13" x2="312.09" y2="143.6"/>
</svg>